<svg width="32" height="33" viewBox="0 0 32 33" fill="none" xmlns="http://www.w3.org/2000/svg"><rect x=".5" y=".5" width="31" height="31.501" rx="1.5" fill="#4E0D76" stroke="#8818CD"/><path d="M17.602 24.667H14.57a.833.833 0 01-.814-.655l-.34-1.57a6.67 6.67 0 01-1.279-.74l-1.53.488a.833.833 0 01-.976-.378l-1.52-2.625a.838.838 0 01.161-1.033l1.188-1.083a6.748 6.748 0 010-1.477l-1.188-1.08a.838.838 0 01-.16-1.034l1.516-2.628a.833.833 0 01.975-.377l1.531.488a6.66 6.66 0 01.634-.417 6.83 6.83 0 01.649-.322l.34-1.568A.833.833 0 0114.569 8h3.033c.392 0 .73.273.814.656l.343 1.569a6.656 6.656 0 011.279.74l1.532-.488a.833.833 0 01.974.377l1.517 2.628a.838.838 0 01-.161 1.032l-1.188 1.084c.054.49.054.985 0 1.476l1.188 1.083a.838.838 0 01.16 1.033l-1.516 2.627a.833.833 0 01-.974.378l-1.532-.488a6.677 6.677 0 01-1.278.739l-.345 1.566a.834.834 0 01-.813.655zM16.082 13a3.333 3.333 0 100 6.667 3.333 3.333 0 000-6.667z" fill="#FFF9F9" fill-opacity=".5"/></svg>