<svg width="318" height="33" viewBox="0 0 318 33" fill="none" xmlns="http://www.w3.org/2000/svg"><path d="M32.084 23.648c0 3.192-1.62 5.556-4.86 7.092-2.688 1.272-6.264 1.908-10.728 1.908-4.608 0-8.172-.576-10.692-1.728-3.24-1.488-4.86-3.912-4.86-7.272V.86h6.912v22.104c0 .84.78 1.488 2.34 1.944 1.584.456 3.684.684 6.3.684 2.712 0 4.836-.216 6.372-.648 1.536-.456 2.304-1.116 2.304-1.98V.86h6.912v22.788zm31.724-3.78H43.036V32h-6.912V7.772c0-1.92.672-3.552 2.016-4.896C39.484 1.532 41.116.86 43.036.86h20.772v6.912H43.72a.69.69 0 00-.504.216.633.633 0 00-.18.468v4.5h20.772v6.912zm31.8-3.456c0 4.56-.575 8.136-1.727 10.728-1.44 3.24-3.744 4.86-6.912 4.86h-13.86c-3.168 0-5.472-1.62-6.912-4.86-1.152-2.592-1.728-6.168-1.728-10.728 0-2.976.204-5.472.612-7.488.504-2.52 1.344-4.44 2.52-5.76C68.969 1.628 70.805.86 73.109.86h13.86c3.312 0 5.664 1.62 7.056 4.86 1.056 2.472 1.584 6.036 1.584 10.692zm-7.055 0c0-2.832-.168-4.98-.504-6.444-.336-1.464-.924-2.196-1.764-2.196H73.829c-.936 0-1.56.708-1.872 2.124-.288 1.416-.432 3.588-.432 6.516 0 2.784.18 4.932.54 6.444.36 1.488.948 2.232 1.764 2.232h12.456c.816 0 1.392-.756 1.728-2.268.36-1.512.54-3.648.54-6.408zm53.618 3.456h-20.772V32h-6.912V7.772c0-1.92.672-3.552 2.016-4.896 1.344-1.344 2.976-2.016 4.896-2.016h20.772v6.912h-20.088a.69.69 0 00-.504.216.633.633 0 00-.18.468v4.5h20.772v6.912zM150.068 32h-6.912V.86h6.912V32zm35.443 0h-6.912c-1.056 0-1.98-.288-2.772-.864-.648-.456-1.32-1.212-2.016-2.268l-11.916-17.784a.625.625 0 00-.612-.396V32h-6.912V.86h6.912c1.032 0 1.956.288 2.772.864.672.48 1.344 1.224 2.016 2.232l11.88 17.784c.12.288.336.432.648.432V.86h6.912V32zm38.253 0h-7.596l-2.412-5.184h-16.092L195.252 32h-7.596L200.94 3.488c.96-2.088 2.556-3.132 4.788-3.132 1.08 0 2.016.276 2.808.828.816.528 1.464 1.296 1.944 2.304L223.764 32zm-12.456-10.368l-4.968-11.016c-.144-.288-.348-.432-.612-.432a.649.649 0 00-.648.432l-4.968 11.016h11.196zM257.054 32h-6.912c-1.056 0-1.98-.288-2.772-.864-.648-.456-1.32-1.212-2.016-2.268l-11.916-17.784a.625.625 0 00-.612-.396V32h-6.912V.86h6.912c1.032 0 1.956.288 2.772.864.672.48 1.344 1.224 2.016 2.232l11.88 17.784c.12.288.336.432.648.432V.86h6.912V32zm31.796 0h-20.772c-1.92 0-3.552-.672-4.896-2.016-1.344-1.344-2.016-2.976-2.016-4.896V7.772c0-1.92.672-3.552 2.016-4.896 1.344-1.344 2.976-2.016 4.896-2.016h20.772v6.912h-20.088a.69.69 0 00-.504.216.633.633 0 00-.18.468v15.912c0 .216.06.396.18.54.144.12.312.18.504.18h20.088V32zm28.859 0h-27.684V.86h27.684v6.912h-20.772v5.184h19.044v6.912h-19.044v5.22h20.772V32z" fill="#fff"/></svg>