<svg width="18" height="18" viewBox="0 0 18 18" fill="none" xmlns="http://www.w3.org/2000/svg"><g clip-path="url(#clip0_9_2569)" fill="#D2D4D4"><path d="M4.324 11.127a.702.702 0 00-.2.492v5.672a.703.703 0 101.404 0V11.62a.703.703 0 00-1.204-.492zm2.539 6.164a.703.703 0 001.405 0v-6.196a.703.703 0 00-1.405 0v6.196zm-5.516 0a.703.703 0 001.405 0v-2.843a.703.703 0 00-1.405 0v2.843z"/><path d="M13.784.006v1.405h1.852L9.243 7.804 6.408 4.97 0 11.567l1.008.98L6.422 6.97l2.821 2.82 7.352-7.35v1.746H18V.007h-4.216z"/><path d="M15.257 5.765a.351.351 0 00-.103.248v11.278a.703.703 0 101.406 0V6.511a.848.848 0 00-.849-.849h-.206a.35.35 0 00-.248.103zM9.603 17.291a.703.703 0 101.406 0V11.71a.703.703 0 00-1.406 0v5.581zm2.775 0a.703.703 0 001.406 0V8.935a.703.703 0 00-1.406 0v8.356z"/></g><defs><clipPath id="clip0_9_2569"><path fill="#fff" d="M0 0h18v18H0z"/></clipPath></defs></svg>