<svg width="22" height="20" viewBox="0 0 22 20" fill="none" xmlns="http://www.w3.org/2000/svg"><g clip-path="url(#clip0_9_1799)"><path d="M21.455 3.799a9.386 9.386 0 01-2.49.647c.896-.507 1.58-1.305 1.901-2.266a8.917 8.917 0 01-2.739.992 4.44 4.44 0 00-3.155-1.297c-2.392 0-4.317 1.842-4.317 4.101 0 .325.03.638.1.935-3.59-.166-6.768-1.8-8.903-4.288a3.97 3.97 0 00-.591 2.072c0 1.42.77 2.679 1.918 3.407a4.442 4.442 0 01-1.951-.505v.045c0 1.993 1.497 3.648 3.46 4.03a4.527 4.527 0 01-1.132.134 4.01 4.01 0 01-.818-.07c.56 1.624 2.148 2.818 4.036 2.856a8.978 8.978 0 01-5.355 1.75c-.354 0-.694-.016-1.034-.057 1.914 1.171 4.181 1.84 6.626 1.84 7.949 0 12.295-6.25 12.295-11.668a9.95 9.95 0 00-.016-.53A8.392 8.392 0 0021.455 3.8z" fill="#fff"/></g><defs><clipPath id="clip0_9_1799"><path fill="#fff" transform="translate(.385)" d="M0 0h21.07v20H0z"/></clipPath></defs></svg>