<svg width="22" height="20" viewBox="0 0 22 20" fill="none" xmlns="http://www.w3.org/2000/svg"><g clip-path="url(#clip0_9_1810)"><path d="M20.1 3.944l1.68-1.527v-.334h-5.823l-4.15 9.807-4.723-9.807H.977v.334l1.964 2.244a.762.762 0 01.266.653v8.819a.973.973 0 01-.283.875L.71 17.553v.33h6.273v-.334l-2.212-2.541a1.005 1.005 0 01-.305-.875V6.505l5.506 11.382h.64l4.735-11.382v9.067c0 .24 0 .289-.165.445l-1.703 1.564v.335h8.262v-.334L20.1 16.056a.452.452 0 01-.188-.445V4.39a.45.45 0 01.187-.445z" fill="#fff"/></g><defs><clipPath id="clip0_9_1810"><path fill="#fff" transform="translate(.711)" d="M0 0h21.07v20H0z"/></clipPath></defs></svg>